<svg version="1.2" xmlns="http://www.w3.org/2000/svg" viewBox="0 0 1160 340" width="1160" height="340">
	<title>New Project</title>
	<style>
		.s0 { fill: linear-gradient(45deg, #12b886 0%, limegreen 100%) } 
	</style>
	<path id="OBRAZCI  NET" class="s0" aria-label="OBRAZCI  NET"  d="m94.6 235c-9.3 0-17.8-1.7-25.8-4.8-7.6-3-14.4-7.6-20.1-13.4-5.7-5.8-10-12.7-13-20.6-3.2-8.1-4.8-17.1-4.8-26.6 0-9.6 1.6-18.6 4.8-26.7 3-8 7.3-14.8 13-20.7 5.7-5.8 12.5-10.3 20.1-13.5 7.8-3.1 16.5-4.8 25.8-4.8 9.3 0 18 1.7 25.8 4.8 7.7 3.2 14.4 7.7 20.1 13.5 5.7 5.9 10.1 12.7 13.1 20.7 3.1 8.1 4.8 17.1 4.8 26.7 0 9.5-1.7 18.5-4.8 26.6-3 7.7-7.4 14.8-13.1 20.5-5.7 5.9-12.4 10.4-20.1 13.5-7.8 3.1-16.5 4.8-25.8 4.8zm-0.9-93.9c-7.3 0-14.2 3-19 8.4-4.8 5.4-7.5 12.8-7.5 20.7 0 8 2.7 15.2 7.5 20.6 4.8 5.4 11.7 8.4 19 8.4 7.7 0 14.3-2.9 19.2-8.4 4.8-5.3 7.5-12.6 7.5-20.6 0-7.9-2.7-15.3-7.5-20.5-4.8-5.6-11.7-8.6-19.2-8.6zm131.1 93.9c-0.1 0-0.1 0-0.3 0h-58.3v-127.6l3 0.1c10.3 0 36.1 0 50.2 0 6.9 0 16.7 1.2 24.5 6.4 3.7 2.6 6.4 5.8 8.4 9.5 2.1 4 3.1 9 3.1 14.4 0 12-4.3 19.5-7.9 23.6-1.1 1.2-2.4 2.3-3.6 3.2l-2.3 1.8 2.7 1.2c2.4 1.1 4.5 2.3 6.3 4 9.5 7.5 11.6 18.8 11.6 27 0 8.2-1.8 15.1-5.4 20.8-3 4.5-7.1 8.1-12.3 10.8-9 4.6-18.6 4.8-19.7 4.8zm-25.6-30.3h17.2c0.8 0 3.2-0.3 5.6-2 3.4-1.9 5.1-5.1 5.1-9.3 0-4-1.7-6.7-5.3-8.3-3-1.4-6.1-1.5-7.3-1.5-0.2 0-0.3 0-0.5 0h-14.8zm-0.3-47.7h14.5c0.6 0 2.6-0.3 4.7-1.5 1.9-1.2 4.2-3.6 4.2-8.3 0-3.6-1.5-6-4.5-7.3-2.4-1.4-5.1-1.5-6-1.5-0.2 0-0.3 0-0.3 0h-0.2-12.4zm130 78.1l-21.9-36.9h-7v36.9h-33.9v-127.8h51.1c7.8 0 14.9 1.1 20.9 3.5 5.7 1.9 10.8 5.2 14.5 9.3 7.5 7.8 11.3 19.2 11.3 32.7 0 8.4-1.5 15.7-5 22-3.1 6.3-8.1 11.3-14.5 14.7l-2 1.2 27.2 44.4zm-29.7-72.1h10.2c5.4 0 14.4-1.7 14.4-12.3 0-3.8-1.1-6.6-3.2-8.7-2.5-2.4-6.3-3.6-11.2-3.6h-10.2zm162.3 72l-8.1-26.4h-38.4l-8.3 26.4h-34.6l46-126.6h32l45.7 126.6zm-12.7-50.1l-12.6-33.6-12.9 33.6zm48.4 50.1v-29.6l52.1-67.2h-50.4v-31h94v26.7l-53.8 68.1h53.8v33zm165 7.5c-9.9 0-19.2-1.4-27.6-4.2-9.6-3.2-17.7-8.1-24-14.6-11.4-11.7-16.8-28.2-16.3-49.2 0.3-11.4 2.8-21.7 7.6-30.6 4.1-7.8 9.8-14.4 17.1-19.6 11.4-8.6 26.9-13.5 41.1-13.5h0.3c9.8 0 16.7 1.2 23.1 4 7.5 3.3 14.7 9 22.7 17.9l1.3 1.3-19.6 23.4-1.7-1.6c-1.3-1.4-3.4-3.2-6.1-5.1-6.5-4.4-13.1-6.5-20.1-6.5-8 0-15.5 3.3-20.9 9.3-5.4 6-8.4 14-8.4 22.4 0 8.8 2.9 16.9 8 23.1 3.7 4.6 10.5 10 21.1 10 8.1 0 15.3-2.1 21.2-6.1 2.5-1.8 4.3-3.6 5.2-4.8l1.7-1.8 19.6 21.7-0.9 1.4c-1.5 2.2-4.5 6.6-9.7 10.9-4.2 3.5-8.9 6.3-14 8.4-6.3 2.4-13.3 3.8-20.7 3.8zm45.3-7.5v-128h36.2v128zm217 0.1l-51.7-68.1v68.1h-34.2v-127.8h30.6l53.4 70.1v-70.1h34.2v127.8zm36.9-0.1v-127.8h83.5v27.4h-49.6v25.8h37.8v22.1h-37.8v25h49.8v27.5zm99.1 0v-100.5h-32.1v-27.3h98.4v27.3h-32.1v100.5z"/>
	<path id="Shape 1" class="s0" d="m791.5 317.1c-14.2 0.1-26.1-64.5-26.6-144.4-0.5-79.9 10.5-144.5 24.7-144.6 14.2-0.1 26.1 64.4 26.6 144.3 0.5 79.9-10.6 144.6-24.7 144.7z"/>
</svg>